<svg width="28" height="32" viewBox="0 0 28 32" fill="none" xmlns="http://www.w3.org/2000/svg">
<rect x="6" y="2" width="20" height="24" fill="#666666"/>
<rect x="7" y="1" width="20" height="24" fill="#A0A0A0"/>
<rect x="8" width="20" height="24" fill="white"/>
<path d="M2.46474 24.875L9.30747 20.9696L7.97795 28.7354L2.46474 24.875Z" fill="white" stroke="#666666" stroke-width="0.5"/>
<mask id="path-5-inside-1_384_254" fill="white">
<path d="M4.46973 25.9756L6.11775 27.1295L3.40697 31.0009L1.75895 29.847L4.46973 25.9756Z"/>
</mask>
<path d="M4.46973 25.9756L6.11775 27.1295L3.40697 31.0009L1.75895 29.847L4.46973 25.9756Z" fill="white"/>
<path d="M3.40697 31.0009L3.12019 31.4105L3.52976 31.6973L3.81655 31.2877L3.40697 31.0009ZM1.75895 29.847L1.34937 29.5602L1.06259 29.9698L1.47216 30.2566L1.75895 29.847ZM5.70817 26.8428L2.9974 30.7141L3.81655 31.2877L6.52733 27.4163L5.70817 26.8428ZM3.69376 30.5914L2.04574 29.4374L1.47216 30.2566L3.12019 31.4105L3.69376 30.5914ZM2.16853 30.1338L4.8793 26.2624L4.06015 25.6888L1.34937 29.5602L2.16853 30.1338Z" fill="#666666" mask="url(#path-5-inside-1_384_254)"/>
<path d="M10.5 2.5H25.5" stroke="#2D2D2D"/>
<path d="M10.5 4.5H25.5" stroke="#2D2D2D"/>
<path d="M10.5 6.5H25.5" stroke="#2D2D2D"/>
<path d="M10.5 8.5H18" stroke="#2D2D2D"/>
<path d="M10.5 10.5H18" stroke="#2D2D2D"/>
<path d="M10.5 12.5H18" stroke="#2D2D2D"/>
<path d="M10.5 15.5H25.5" stroke="#2D2D2D"/>
<path d="M10.5 17.5H25.5" stroke="#2D2D2D"/>
<path d="M10.5 19.5H25.5" stroke="#2D2D2D"/>
<rect x="19" y="8" width="6" height="5" fill="#D9D9D9"/>
</svg>
