<svg width="42" height="49" viewBox="0 0 42 49" fill="none" xmlns="http://www.w3.org/2000/svg">
<path d="M7 21H30V36.3333H7V21Z" stroke="#AEAEAE" stroke-width="2"/>
<path d="M3.51463 14.7208L22.7418 2.09877L25.4857 6.2786L6.25854 18.9006L3.51463 14.7208Z" stroke="#AEAEAE" stroke-width="2"/>
<path d="M8 24.5H30" stroke="#AEAEAE"/>
<path d="M9.5 24.5L12.5 21.5" stroke="#AEAEAE"/>
<path d="M12.5 24.5L15.5 21.5" stroke="#AEAEAE"/>
<path d="M15.5 24.5L18.5 21.5" stroke="#AEAEAE"/>
<path d="M18.5 24.5L21.5 21.5" stroke="#AEAEAE"/>
<path d="M21.5 24.5L24.5 21.5" stroke="#AEAEAE"/>
<path d="M24.5 24.5L27.5 21.5" stroke="#AEAEAE"/>
<path d="M34.8744 25.8486L35.0155 26.96L36.9022 27.9761L37.9078 27.4821C38.6344 27.1253 39.0742 26.3656 39.0219 25.5578L38.8037 22.1853L35.8678 23.8593C35.1646 24.2603 34.7725 25.0456 34.8744 25.8486Z" fill="#E9E9E9" stroke="#E9E9E9"/>
<path d="M34.1641 27.6377L36.8054 29.0601L31.3528 39.1853C30.9601 39.9147 30.0504 40.1876 29.321 39.7948V39.7948C28.5916 39.402 28.3187 38.4923 28.7115 37.7629L34.1641 27.6377Z" fill="#E9E9E9"/>
<path fill-rule="evenodd" clip-rule="evenodd" d="M2.15442 30.7163C1.31202 31.4451 0.661324 32.4091 0.4839 33.5088C-0.292931 38.3238 3.95014 44.0734 10.7778 47.0115C17.9907 50.1153 25.4992 48.9672 28.1215 44.5187C28.4094 44.0303 28.5354 43.4643 28.5479 42.8976C28.6734 37.2169 25.8388 36.5651 21.7981 35.6359C20.1513 35.2573 18.3043 34.8326 16.3757 34.0027C14.9227 33.3774 13.5933 32.4649 12.3101 31.584C9.04996 29.3461 6.08803 27.3129 2.15442 30.7163ZM19.6943 40.3678C21.3059 40.7522 22.4996 40.7376 23.1279 39.795C23.9284 38.5941 22.1663 37.1452 20.5547 36.7607C20.2494 36.6879 19.9593 36.5996 19.6868 36.5165C18.5207 36.1613 17.6749 35.9037 17.3234 37.3775C16.8897 39.1957 18.0826 39.9834 19.6943 40.3678Z" fill="white"/>
<path d="M4.5 35.5C4.5 36.3284 4.32843 37 3.5 37C2.67157 37 2 36 2 35C2 34.1716 2.17157 33 3 33C3.82843 33 4.5 34.6716 4.5 35.5Z" fill="#FF7B7B"/>
<path d="M7.5 40C7.5 40.8284 7.32843 41.5 6.5 41.5C5.67157 41.5 5 40.5 5 39.5C5 38.6716 5.17157 37.5 6 37.5C6.82843 37.5 7.5 39.1716 7.5 40Z" fill="#FFF48E"/>
<path d="M11.5 43C11.5 43.8284 11.3284 44.5 10.5 44.5C9.67157 44.5 9 43.5 9 42.5C9 41.6716 9.17157 40.5 10 40.5C10.8284 40.5 11.5 42.1716 11.5 43Z" fill="#79FF6E"/>
<path d="M7.5 32.5C7.5 33.3284 7.32843 34 6.5 34C5.67157 34 5 33 5 32C5 31.1716 5.17157 30 6 30C6.82843 30 7.5 31.6716 7.5 32.5Z" fill="#7B80FF"/>
<path d="M10.5 37C10.5 37.8284 10.3284 38.5 9.5 38.5C8.67157 38.5 8 37.5 8 36.5C8 35.6716 8.17157 34.5 9 34.5C9.82843 34.5 10.5 36.1716 10.5 37Z" fill="#9E7B52"/>
<path d="M14.5 40C14.5 40.8284 14.3284 41.5 13.5 41.5C12.6716 41.5 12 40.5 12 39.5C12 38.6716 12.1716 37.5 13 37.5C13.8284 37.5 14.5 39.1716 14.5 40Z" fill="#707070"/>
<path d="M16.5 45.5C16.5 46.3284 16.3284 47 15.5 47C14.6716 47 14 46 14 45C14 44.1716 14.1716 43 15 43C15.8284 43 16.5 44.6716 16.5 45.5Z" fill="#6AFFE4"/>
<path d="M20.5 45.5C20.5 46.3284 20.3284 47 19.5 47C18.6716 47 18 46 18 45C18 44.1716 18.1716 43 19 43C19.8284 43 20.5 44.6716 20.5 45.5Z" fill="#FF89FA"/>
</svg>
