<svg width="29" height="24" viewBox="0 0 29 24" fill="none" xmlns="http://www.w3.org/2000/svg">
<rect x="2.5" y="0.5" width="18" height="9" stroke="white"/>
<rect x="8.5" y="11.5" width="18" height="9" stroke="white"/>
<path d="M0.610495 11.428L2.15201 8.76338L3.16156 9.70506L0.610495 11.428Z" fill="white"/>
<path d="M28.3114 22.469L26.7699 19.8044L25.7603 20.7461L28.3114 22.469Z" fill="white"/>
<path d="M5.17669 6V3.08H5.53669V4.328H6.47269V3.08H6.83269V6H6.47269V4.656H5.53669V6H5.17669ZM8.40313 6.04C8.22979 6.04 8.07779 6.00533 7.94713 5.936C7.81913 5.86667 7.71913 5.76933 7.64713 5.644C7.57779 5.516 7.54313 5.368 7.54313 5.2V4.6C7.54313 4.42933 7.57779 4.28133 7.64713 4.156C7.71913 4.03067 7.81913 3.93333 7.94713 3.864C8.07779 3.79467 8.22979 3.76 8.40313 3.76C8.57646 3.76 8.72713 3.79467 8.85513 3.864C8.98579 3.93333 9.08579 4.03067 9.15513 4.156C9.22713 4.28133 9.26313 4.42933 9.26313 4.6V4.988H7.89513V5.2C7.89513 5.37333 7.93913 5.50667 8.02713 5.6C8.11513 5.69067 8.24046 5.736 8.40313 5.736C8.54179 5.736 8.65379 5.712 8.73913 5.664C8.82446 5.61333 8.87646 5.53867 8.89513 5.44H9.25513C9.23113 5.624 9.14046 5.77067 8.98313 5.88C8.82846 5.98667 8.63513 6.04 8.40313 6.04ZM8.91113 4.748V4.6C8.91113 4.42667 8.86713 4.29333 8.77913 4.2C8.69379 4.10667 8.56846 4.06 8.40313 4.06C8.24046 4.06 8.11513 4.10667 8.02713 4.2C7.93913 4.29333 7.89513 4.42667 7.89513 4.6V4.716H8.93913L8.91113 4.748ZM11.1016 6C10.9736 6 10.8616 5.97467 10.7656 5.924C10.6696 5.87333 10.5949 5.80133 10.5416 5.708C10.4882 5.61467 10.4616 5.50533 10.4616 5.38V3.408H9.72156V3.08H10.8216V5.38C10.8216 5.47067 10.8469 5.54267 10.8976 5.596C10.9482 5.64667 11.0162 5.672 11.1016 5.672H11.8016V6H11.1016ZM13.5 6C13.372 6 13.26 5.97467 13.164 5.924C13.068 5.87333 12.9933 5.80133 12.94 5.708C12.8867 5.61467 12.86 5.50533 12.86 5.38V3.408H12.12V3.08H13.22V5.38C13.22 5.47067 13.2453 5.54267 13.296 5.596C13.3467 5.64667 13.4147 5.672 13.5 5.672H14.2V6H13.5ZM15.5984 6.032C15.4224 6.032 15.2704 5.99867 15.1424 5.932C15.0144 5.86533 14.9144 5.76933 14.8424 5.644C14.7731 5.516 14.7384 5.36533 14.7384 5.192V4.608C14.7384 4.432 14.7731 4.28133 14.8424 4.156C14.9144 4.03067 15.0144 3.93467 15.1424 3.868C15.2704 3.80133 15.4224 3.768 15.5984 3.768C15.7744 3.768 15.9264 3.80133 16.0544 3.868C16.1824 3.93467 16.2811 4.03067 16.3504 4.156C16.4224 4.28133 16.4584 4.43067 16.4584 4.604V5.192C16.4584 5.36533 16.4224 5.516 16.3504 5.644C16.2811 5.76933 16.1824 5.86533 16.0544 5.932C15.9264 5.99867 15.7744 6.032 15.5984 6.032ZM15.5984 5.712C15.7558 5.712 15.8784 5.668 15.9664 5.58C16.0544 5.492 16.0984 5.36267 16.0984 5.192V4.608C16.0984 4.43733 16.0544 4.308 15.9664 4.22C15.8784 4.132 15.7558 4.088 15.5984 4.088C15.4438 4.088 15.3211 4.132 15.2304 4.22C15.1424 4.308 15.0984 4.43733 15.0984 4.608V5.192C15.0984 5.36267 15.1424 5.492 15.2304 5.58C15.3211 5.668 15.4438 5.712 15.5984 5.712ZM17.8689 5.14L17.7849 3.56V3.08H18.2089V3.56L18.1249 5.14H17.8689ZM17.9369 6.02C17.8675 6.02 17.8102 5.99733 17.7649 5.952C17.7195 5.90667 17.6969 5.84933 17.6969 5.78C17.6969 5.71067 17.7195 5.65333 17.7649 5.608C17.8102 5.56267 17.8675 5.54 17.9369 5.54H18.0569C18.1342 5.54 18.1929 5.56267 18.2329 5.608C18.2755 5.65067 18.2969 5.70667 18.2969 5.776C18.2969 5.84533 18.2742 5.904 18.2289 5.952C18.1835 5.99733 18.1262 6.02 18.0569 6.02H17.9369Z" fill="white"/>
<path d="M11.2927 17.72V17.22L11.3767 15.656H11.6327L11.7167 17.22V17.72H11.2927ZM11.4647 15.256C11.3874 15.256 11.3247 15.2333 11.2767 15.188C11.2287 15.1427 11.2047 15.084 11.2047 15.012C11.2047 14.94 11.2287 14.8827 11.2767 14.84C11.3247 14.7973 11.3874 14.776 11.4647 14.776H11.5447C11.622 14.776 11.6847 14.7973 11.7327 14.84C11.7807 14.88 11.8047 14.936 11.8047 15.008C11.8047 15.0827 11.7807 15.1427 11.7327 15.188C11.6847 15.2333 11.622 15.256 11.5447 15.256H11.4647ZM13.0751 17V14.08H13.4351V15.328H14.3711V14.08H14.7311V17H14.3711V15.656H13.4351V17H13.0751ZM16.3016 17.032C16.1256 17.032 15.9736 16.9987 15.8456 16.932C15.7176 16.8653 15.6176 16.7693 15.5456 16.644C15.4762 16.516 15.4416 16.3653 15.4416 16.192V15.608C15.4416 15.432 15.4762 15.2813 15.5456 15.156C15.6176 15.0307 15.7176 14.9347 15.8456 14.868C15.9736 14.8013 16.1256 14.768 16.3016 14.768C16.4776 14.768 16.6296 14.8013 16.7576 14.868C16.8856 14.9347 16.9842 15.0307 17.0536 15.156C17.1256 15.2813 17.1616 15.4307 17.1616 15.604V16.192C17.1616 16.3653 17.1256 16.516 17.0536 16.644C16.9842 16.7693 16.8856 16.8653 16.7576 16.932C16.6296 16.9987 16.4776 17.032 16.3016 17.032ZM16.3016 16.712C16.4589 16.712 16.5816 16.668 16.6696 16.58C16.7576 16.492 16.8016 16.3627 16.8016 16.192V15.608C16.8016 15.4373 16.7576 15.308 16.6696 15.22C16.5816 15.132 16.4589 15.088 16.3016 15.088C16.1469 15.088 16.0242 15.132 15.9336 15.22C15.8456 15.308 15.8016 15.4373 15.8016 15.608V16.192C15.8016 16.3627 15.8456 16.492 15.9336 16.58C16.0242 16.668 16.1469 16.712 16.3016 16.712ZM19 17C18.872 17 18.76 16.9747 18.664 16.924C18.568 16.8733 18.4933 16.8013 18.44 16.708C18.3867 16.6147 18.36 16.5053 18.36 16.38V14.408H17.62V14.08H18.72V16.38C18.72 16.4707 18.7453 16.5427 18.796 16.596C18.8467 16.6467 18.9147 16.672 19 16.672H19.7V17H19ZM20.9064 17.04C20.6744 17.04 20.4918 16.9813 20.3584 16.864C20.2251 16.744 20.1584 16.5827 20.1584 16.38C20.1584 16.1747 20.2251 16.0133 20.3584 15.896C20.4918 15.7787 20.6718 15.72 20.8984 15.72H21.5784V15.5C21.5784 15.364 21.5371 15.26 21.4544 15.188C21.3744 15.1133 21.2598 15.076 21.1104 15.076C20.9798 15.076 20.8704 15.104 20.7824 15.16C20.6944 15.2133 20.6438 15.2867 20.6304 15.38H20.2704C20.2944 15.1907 20.3838 15.04 20.5384 14.928C20.6931 14.816 20.8864 14.76 21.1184 14.76C21.3718 14.76 21.5718 14.8253 21.7184 14.956C21.8651 15.0867 21.9384 15.264 21.9384 15.488V17H21.5864V16.58H21.5264L21.5864 16.52C21.5864 16.68 21.5238 16.8067 21.3984 16.9C21.2758 16.9933 21.1118 17.04 20.9064 17.04ZM20.9944 16.756C21.1651 16.756 21.3051 16.7133 21.4144 16.628C21.5238 16.5427 21.5784 16.4333 21.5784 16.3V15.988H20.9064C20.7864 15.988 20.6918 16.0213 20.6224 16.088C20.5531 16.1547 20.5184 16.2453 20.5184 16.36C20.5184 16.4827 20.5598 16.58 20.6424 16.652C20.7278 16.7213 20.8451 16.756 20.9944 16.756ZM23.3689 16.14L23.2849 14.56V14.08H23.7089V14.56L23.6249 16.14H23.3689ZM23.4369 17.02C23.3675 17.02 23.3102 16.9973 23.2649 16.952C23.2195 16.9067 23.1969 16.8493 23.1969 16.78C23.1969 16.7107 23.2195 16.6533 23.2649 16.608C23.3102 16.5627 23.3675 16.54 23.4369 16.54H23.5569C23.6342 16.54 23.6929 16.5627 23.7329 16.608C23.7755 16.6507 23.7969 16.7067 23.7969 16.776C23.7969 16.8453 23.7742 16.904 23.7289 16.952C23.6835 16.9973 23.6262 17.02 23.5569 17.02H23.4369Z" fill="white"/>
</svg>
