<svg width="59" height="59" viewBox="0 0 59 59" fill="none" xmlns="http://www.w3.org/2000/svg"><g clip-path="url(#a)" fill="#000"><path fill-rule="evenodd" clip-rule="evenodd" d="M24.187 22.5c-5.447 3.145 2.863 18.724 8.823 15.283l5.526 9.571c-2.514 1.452-4.643 2.367-7.558.7-8.095-4.626-17.005-20.053-16.751-29.255.088-3.196 1.971-4.448 4.434-5.87l5.526 9.57v.001ZM26.471 22.24a1.236 1.236 0 0 1-1.686-.452l-5.21-9.023a1.236 1.236 0 0 1 .453-1.686l2.738-1.58a1.237 1.237 0 0 1 1.685.451l5.21 9.024c.34.588.137 1.345-.452 1.685l-2.738 1.58v.001ZM40.703 46.89a1.236 1.236 0 0 1-1.686-.451l-5.21-9.023a1.236 1.236 0 0 1 .452-1.686l2.738-1.58a1.237 1.237 0 0 1 1.686.45l5.21 9.024c.339.588.136 1.346-.452 1.685l-2.738 1.581Z"/><path d="M29.141 0v.007c8.05 0 15.336 3.26 20.605 8.53a29.046 29.046 0 0 1 8.529 20.603h.007v.002h-.007c0 8.05-3.26 15.335-8.53 20.604a29.046 29.046 0 0 1-20.604 8.529v.007-.007c-8.05 0-15.336-3.26-20.605-8.53a29.046 29.046 0 0 1-8.53-20.604H0h.007c0-8.05 3.26-15.336 8.53-20.605A29.046 29.046 0 0 1 29.14.006V0h.001Zm0 3.476v.007-.007c-7.08 0-13.495 2.875-18.142 7.522-4.647 4.648-7.523 11.063-7.523 18.142h.007v.002h-.007c0 7.079 2.876 13.494 7.523 18.14 4.648 4.649 11.063 7.524 18.142 7.524v-.007h.001v.007c7.08 0 13.494-2.876 18.141-7.523 4.648-4.648 7.523-11.063 7.523-18.142H54.8v-.001h.006c0-7.08-2.875-13.494-7.522-18.141C42.636 6.35 36.22 3.476 29.142 3.476Z"/></g><defs><clipPath id="a"><path fill="#fff" d="M0 0h58.282v58.282H0z"/></clipPath></defs></svg>