<svg width="870" height="159" viewBox="0 0 870 159" fill="none" xmlns="http://www.w3.org/2000/svg">
<path d="M24.192 99H3.328V54.2H8.384V94.136H24.192V99ZM33.342 62.776C32.4033 62.776 31.5927 62.456 30.91 61.816C30.27 61.1333 29.95 60.3227 29.95 59.384C29.95 58.4453 30.27 57.656 30.91 57.016C31.5927 56.3333 32.4033 55.992 33.342 55.992C34.2807 55.992 35.07 56.3333 35.71 57.016C36.3927 57.656 36.734 58.4453 36.734 59.384C36.734 60.3227 36.3927 61.1333 35.71 61.816C35.07 62.456 34.2807 62.776 33.342 62.776ZM35.774 99H30.974V67H35.774V99ZM48.1935 99H43.1375V54.2H48.1935V99ZM57.967 62.776C57.0283 62.776 56.2177 62.456 55.535 61.816C54.895 61.1333 54.575 60.3227 54.575 59.384C54.575 58.4453 54.895 57.656 55.535 57.016C56.2177 56.3333 57.0283 55.992 57.967 55.992C58.9057 55.992 59.695 56.3333 60.335 57.016C61.0177 57.656 61.359 58.4453 61.359 59.384C61.359 60.3227 61.0177 61.1333 60.335 61.816C59.695 62.456 58.9057 62.776 57.967 62.776ZM60.399 99H55.599V67H60.399V99ZM76.3685 99.32C73.3818 99.2347 70.8858 98.4027 68.8805 96.824C66.8752 95.2027 65.8725 92.856 65.8725 89.784C65.8725 86.584 66.8112 84.088 68.6885 82.296C70.5658 80.4613 73.1258 79.288 76.3685 78.776C79.6112 78.264 83.2378 78.3707 87.2485 79.096V76.792C87.2485 75.2987 86.7792 74.1253 85.8405 73.272C84.9018 72.376 83.6858 71.7787 82.1925 71.48C80.7418 71.1813 79.2058 71.16 77.5845 71.416C76.0058 71.6293 74.5125 72.12 73.1045 72.888C71.6965 73.6133 70.6085 74.5733 69.8405 75.768L66.7045 72.44C68.0272 70.8187 69.6272 69.56 71.5045 68.664C73.4245 67.768 75.4085 67.192 77.4565 66.936C79.5045 66.68 81.4885 66.744 83.4085 67.128C85.3285 67.512 87.0138 68.216 88.4645 69.24C89.8725 70.0933 90.8325 71.2027 91.3445 72.568C91.8992 73.8907 92.2192 75.4267 92.3045 77.176C92.3898 78.9253 92.4325 80.8027 92.4325 82.808V99H87.3125V95.992C85.7338 97.144 83.9845 97.9973 82.0645 98.552C80.1445 99.1067 78.2458 99.3627 76.3685 99.32ZM87.1845 91.448V83.064C82.1072 82.424 78.0752 82.5947 75.0885 83.576C72.1018 84.5573 70.6085 86.6053 70.6085 89.72C70.6085 91.0853 70.9925 92.152 71.7605 92.92C72.5712 93.688 73.5952 94.2 74.8325 94.456C76.1125 94.712 77.4992 94.7547 78.9925 94.584C80.4858 94.4133 81.9578 94.0507 83.4085 93.496C84.8592 92.9413 86.1178 92.2587 87.1845 91.448ZM126.857 99H121.801V79.992C121.801 77.944 121.353 76.3013 120.457 75.064C119.604 73.8267 118.494 72.952 117.129 72.44C115.806 71.8853 114.42 71.608 112.969 71.608C111.561 71.608 110.153 71.9067 108.745 72.504C107.38 73.1013 106.228 74.0187 105.289 75.256C104.35 76.4933 103.881 78.072 103.881 79.992V99H98.825V67H103.881V70.456C104.862 69.1333 106.206 68.1733 107.913 67.576C109.62 66.936 111.39 66.616 113.225 66.616C115.7 66.616 117.961 67.128 120.009 68.152C122.1 69.176 123.764 70.6907 125.001 72.696C126.238 74.6587 126.857 77.0907 126.857 79.992V99ZM156.95 99L157.014 54.2H174.102C176.278 54.2 178.219 54.8187 179.926 56.056C181.633 57.2507 182.977 58.8507 183.958 60.856C184.939 62.8187 185.43 64.9307 185.43 67.192C185.43 68.7707 185.11 70.328 184.47 71.864C183.873 73.3573 183.041 74.744 181.974 76.024C180.95 77.2613 179.734 78.264 178.326 79.032C176.961 79.7573 175.489 80.12 173.91 80.12H162.006V99H156.95ZM162.006 75.192H173.782C174.977 75.192 176.065 74.808 177.046 74.04C178.07 73.2293 178.881 72.2053 179.478 70.968C180.118 69.7307 180.438 68.472 180.438 67.192C180.438 65.7413 180.139 64.4187 179.542 63.224C178.987 61.9867 178.219 61.0053 177.238 60.28C176.257 59.5547 175.169 59.192 173.974 59.192H162.006V75.192ZM217.581 84.536H192.685C192.77 87.3093 193.517 89.5067 194.925 91.128C196.333 92.7493 198.125 93.816 200.301 94.328C202.477 94.84 204.802 94.7973 207.277 94.2C209.751 93.6027 212.098 92.472 214.317 90.808L217.005 94.776C214.914 96.3973 212.738 97.592 210.477 98.36C208.215 99.128 205.954 99.5333 203.693 99.576C198.359 99.704 194.285 98.232 191.469 95.16C188.653 92.0453 187.245 87.7147 187.245 82.168C187.245 77.432 188.567 73.656 191.213 70.84C193.901 68.024 197.783 66.6373 202.861 66.68C206.189 66.68 209.026 67.3627 211.373 68.728C213.719 70.0933 215.447 72.12 216.557 74.808C217.111 76.1307 217.453 77.6027 217.581 79.224C217.751 80.8453 217.751 82.616 217.581 84.536ZM203.117 71.416C200.215 71.416 197.741 72.184 195.693 73.72C193.687 75.2133 192.685 77.4533 192.685 80.44H213.037C213.037 77.624 212.141 75.4267 210.349 73.848C208.599 72.2267 206.189 71.416 203.117 71.416ZM251.278 99H246.222V95.672C245.369 96.952 244.153 97.912 242.574 98.552C240.995 99.192 239.267 99.5333 237.39 99.576C235.513 99.6613 233.678 99.448 231.886 98.936C230.094 98.3813 228.579 97.5493 227.342 96.44C226.062 95.3307 225.059 93.9227 224.334 92.216C223.651 90.5093 223.31 88.5467 223.31 86.328V67H228.43V86.328C228.43 89.272 229.262 91.4267 230.926 92.792C232.633 94.1573 234.809 94.84 237.454 94.84C238.777 94.84 240.099 94.5413 241.422 93.944C242.787 93.3467 243.918 92.4293 244.814 91.192C245.753 89.912 246.222 88.2907 246.222 86.328V67H251.278V99ZM257.7 99V67.384H262.756V70.328C264.164 68.7493 265.892 67.7893 267.94 67.448C270.031 67.1067 272.655 67.384 275.812 68.28L273.444 72.76C271.524 72.0773 269.732 71.9707 268.068 72.44C266.447 72.8667 265.145 73.6347 264.164 74.744C263.183 75.8533 262.713 77.048 262.756 78.328V99H257.7ZM292.611 99.768C289.539 99.768 286.829 99.1067 284.483 97.784C282.179 96.4613 280.365 94.6053 279.043 92.216C277.763 89.784 277.123 86.9467 277.123 83.704C277.123 79.9493 277.805 76.8133 279.171 74.296C280.536 71.7787 282.371 69.88 284.675 68.6C287.021 67.32 289.667 66.68 292.611 66.68C295.64 66.68 298.307 67.32 300.611 68.6C302.957 69.88 304.792 71.7787 306.115 74.296C307.437 76.8133 308.099 79.9493 308.099 83.704C308.099 86.9467 307.437 89.784 306.115 92.216C304.792 94.6053 302.957 96.4613 300.611 97.784C298.307 99.1067 295.64 99.768 292.611 99.768ZM292.611 94.904C294.872 94.904 296.792 94.4133 298.371 93.432C299.949 92.408 301.144 91.0427 301.955 89.336C302.765 87.6293 303.171 85.752 303.171 83.704C303.171 80.2053 302.253 77.3253 300.419 75.064C298.627 72.76 296.024 71.608 292.611 71.608C289.155 71.608 286.531 72.76 284.739 75.064C282.947 77.368 282.051 80.248 282.051 83.704C282.051 85.7947 282.435 87.6933 283.203 89.4C284.013 91.064 285.208 92.408 286.787 93.432C288.365 94.4133 290.307 94.904 292.611 94.904ZM341.92 99H336.864V79.992C336.864 77.944 336.416 76.3013 335.52 75.064C334.666 73.8267 333.557 72.952 332.192 72.44C330.869 71.8853 329.482 71.608 328.032 71.608C326.624 71.608 325.216 71.9067 323.808 72.504C322.442 73.1013 321.29 74.0187 320.352 75.256C319.413 76.4933 318.944 78.072 318.944 79.992V99H313.888V67H318.944V70.456C319.925 69.1333 321.269 68.1733 322.976 67.576C324.682 66.936 326.453 66.616 328.288 66.616C330.762 66.616 333.024 67.128 335.072 68.152C337.162 69.176 338.826 70.6907 340.064 72.696C341.301 74.6587 341.92 77.0907 341.92 79.992V99Z" fill="white"/>
<path d="M24.192 99H3.328V54.2H8.384V94.136H24.192V99ZM33.342 62.776C32.4033 62.776 31.5927 62.456 30.91 61.816C30.27 61.1333 29.95 60.3227 29.95 59.384C29.95 58.4453 30.27 57.656 30.91 57.016C31.5927 56.3333 32.4033 55.992 33.342 55.992C34.2807 55.992 35.07 56.3333 35.71 57.016C36.3927 57.656 36.734 58.4453 36.734 59.384C36.734 60.3227 36.3927 61.1333 35.71 61.816C35.07 62.456 34.2807 62.776 33.342 62.776ZM35.774 99H30.974V67H35.774V99ZM48.1935 99H43.1375V54.2H48.1935V99ZM57.967 62.776C57.0283 62.776 56.2177 62.456 55.535 61.816C54.895 61.1333 54.575 60.3227 54.575 59.384C54.575 58.4453 54.895 57.656 55.535 57.016C56.2177 56.3333 57.0283 55.992 57.967 55.992C58.9057 55.992 59.695 56.3333 60.335 57.016C61.0177 57.656 61.359 58.4453 61.359 59.384C61.359 60.3227 61.0177 61.1333 60.335 61.816C59.695 62.456 58.9057 62.776 57.967 62.776ZM60.399 99H55.599V67H60.399V99ZM76.3685 99.32C73.3818 99.2347 70.8858 98.4027 68.8805 96.824C66.8752 95.2027 65.8725 92.856 65.8725 89.784C65.8725 86.584 66.8112 84.088 68.6885 82.296C70.5658 80.4613 73.1258 79.288 76.3685 78.776C79.6112 78.264 83.2378 78.3707 87.2485 79.096V76.792C87.2485 75.2987 86.7792 74.1253 85.8405 73.272C84.9018 72.376 83.6858 71.7787 82.1925 71.48C80.7418 71.1813 79.2058 71.16 77.5845 71.416C76.0058 71.6293 74.5125 72.12 73.1045 72.888C71.6965 73.6133 70.6085 74.5733 69.8405 75.768L66.7045 72.44C68.0272 70.8187 69.6272 69.56 71.5045 68.664C73.4245 67.768 75.4085 67.192 77.4565 66.936C79.5045 66.68 81.4885 66.744 83.4085 67.128C85.3285 67.512 87.0138 68.216 88.4645 69.24C89.8725 70.0933 90.8325 71.2027 91.3445 72.568C91.8992 73.8907 92.2192 75.4267 92.3045 77.176C92.3898 78.9253 92.4325 80.8027 92.4325 82.808V99H87.3125V95.992C85.7338 97.144 83.9845 97.9973 82.0645 98.552C80.1445 99.1067 78.2458 99.3627 76.3685 99.32ZM87.1845 91.448V83.064C82.1072 82.424 78.0752 82.5947 75.0885 83.576C72.1018 84.5573 70.6085 86.6053 70.6085 89.72C70.6085 91.0853 70.9925 92.152 71.7605 92.92C72.5712 93.688 73.5952 94.2 74.8325 94.456C76.1125 94.712 77.4992 94.7547 78.9925 94.584C80.4858 94.4133 81.9578 94.0507 83.4085 93.496C84.8592 92.9413 86.1178 92.2587 87.1845 91.448ZM126.857 99H121.801V79.992C121.801 77.944 121.353 76.3013 120.457 75.064C119.604 73.8267 118.494 72.952 117.129 72.44C115.806 71.8853 114.42 71.608 112.969 71.608C111.561 71.608 110.153 71.9067 108.745 72.504C107.38 73.1013 106.228 74.0187 105.289 75.256C104.35 76.4933 103.881 78.072 103.881 79.992V99H98.825V67H103.881V70.456C104.862 69.1333 106.206 68.1733 107.913 67.576C109.62 66.936 111.39 66.616 113.225 66.616C115.7 66.616 117.961 67.128 120.009 68.152C122.1 69.176 123.764 70.6907 125.001 72.696C126.238 74.6587 126.857 77.0907 126.857 79.992V99ZM156.95 99L157.014 54.2H174.102C176.278 54.2 178.219 54.8187 179.926 56.056C181.633 57.2507 182.977 58.8507 183.958 60.856C184.939 62.8187 185.43 64.9307 185.43 67.192C185.43 68.7707 185.11 70.328 184.47 71.864C183.873 73.3573 183.041 74.744 181.974 76.024C180.95 77.2613 179.734 78.264 178.326 79.032C176.961 79.7573 175.489 80.12 173.91 80.12H162.006V99H156.95ZM162.006 75.192H173.782C174.977 75.192 176.065 74.808 177.046 74.04C178.07 73.2293 178.881 72.2053 179.478 70.968C180.118 69.7307 180.438 68.472 180.438 67.192C180.438 65.7413 180.139 64.4187 179.542 63.224C178.987 61.9867 178.219 61.0053 177.238 60.28C176.257 59.5547 175.169 59.192 173.974 59.192H162.006V75.192ZM217.581 84.536H192.685C192.77 87.3093 193.517 89.5067 194.925 91.128C196.333 92.7493 198.125 93.816 200.301 94.328C202.477 94.84 204.802 94.7973 207.277 94.2C209.751 93.6027 212.098 92.472 214.317 90.808L217.005 94.776C214.914 96.3973 212.738 97.592 210.477 98.36C208.215 99.128 205.954 99.5333 203.693 99.576C198.359 99.704 194.285 98.232 191.469 95.16C188.653 92.0453 187.245 87.7147 187.245 82.168C187.245 77.432 188.567 73.656 191.213 70.84C193.901 68.024 197.783 66.6373 202.861 66.68C206.189 66.68 209.026 67.3627 211.373 68.728C213.719 70.0933 215.447 72.12 216.557 74.808C217.111 76.1307 217.453 77.6027 217.581 79.224C217.751 80.8453 217.751 82.616 217.581 84.536ZM203.117 71.416C200.215 71.416 197.741 72.184 195.693 73.72C193.687 75.2133 192.685 77.4533 192.685 80.44H213.037C213.037 77.624 212.141 75.4267 210.349 73.848C208.599 72.2267 206.189 71.416 203.117 71.416ZM251.278 99H246.222V95.672C245.369 96.952 244.153 97.912 242.574 98.552C240.995 99.192 239.267 99.5333 237.39 99.576C235.513 99.6613 233.678 99.448 231.886 98.936C230.094 98.3813 228.579 97.5493 227.342 96.44C226.062 95.3307 225.059 93.9227 224.334 92.216C223.651 90.5093 223.31 88.5467 223.31 86.328V67H228.43V86.328C228.43 89.272 229.262 91.4267 230.926 92.792C232.633 94.1573 234.809 94.84 237.454 94.84C238.777 94.84 240.099 94.5413 241.422 93.944C242.787 93.3467 243.918 92.4293 244.814 91.192C245.753 89.912 246.222 88.2907 246.222 86.328V67H251.278V99ZM257.7 99V67.384H262.756V70.328C264.164 68.7493 265.892 67.7893 267.94 67.448C270.031 67.1067 272.655 67.384 275.812 68.28L273.444 72.76C271.524 72.0773 269.732 71.9707 268.068 72.44C266.447 72.8667 265.145 73.6347 264.164 74.744C263.183 75.8533 262.713 77.048 262.756 78.328V99H257.7ZM292.611 99.768C289.539 99.768 286.829 99.1067 284.483 97.784C282.179 96.4613 280.365 94.6053 279.043 92.216C277.763 89.784 277.123 86.9467 277.123 83.704C277.123 79.9493 277.805 76.8133 279.171 74.296C280.536 71.7787 282.371 69.88 284.675 68.6C287.021 67.32 289.667 66.68 292.611 66.68C295.64 66.68 298.307 67.32 300.611 68.6C302.957 69.88 304.792 71.7787 306.115 74.296C307.437 76.8133 308.099 79.9493 308.099 83.704C308.099 86.9467 307.437 89.784 306.115 92.216C304.792 94.6053 302.957 96.4613 300.611 97.784C298.307 99.1067 295.64 99.768 292.611 99.768ZM292.611 94.904C294.872 94.904 296.792 94.4133 298.371 93.432C299.949 92.408 301.144 91.0427 301.955 89.336C302.765 87.6293 303.171 85.752 303.171 83.704C303.171 80.2053 302.253 77.3253 300.419 75.064C298.627 72.76 296.024 71.608 292.611 71.608C289.155 71.608 286.531 72.76 284.739 75.064C282.947 77.368 282.051 80.248 282.051 83.704C282.051 85.7947 282.435 87.6933 283.203 89.4C284.013 91.064 285.208 92.408 286.787 93.432C288.365 94.4133 290.307 94.904 292.611 94.904ZM341.92 99H336.864V79.992C336.864 77.944 336.416 76.3013 335.52 75.064C334.666 73.8267 333.557 72.952 332.192 72.44C330.869 71.8853 329.482 71.608 328.032 71.608C326.624 71.608 325.216 71.9067 323.808 72.504C322.442 73.1013 321.29 74.0187 320.352 75.256C319.413 76.4933 318.944 78.072 318.944 79.992V99H313.888V67H318.944V70.456C319.925 69.1333 321.269 68.1733 322.976 67.576C324.682 66.936 326.453 66.616 328.288 66.616C330.762 66.616 333.024 67.128 335.072 68.152C337.162 69.176 338.826 70.6907 340.064 72.696C341.301 74.6587 341.92 77.0907 341.92 79.992V99Z" fill="url(#paint0_linear_246_148)"/>
<path d="M527.95 99L528.009 57.7H543.762C545.768 57.7 547.558 58.2703 549.131 59.411C550.704 60.5123 551.943 61.9873 552.848 63.836C553.753 65.6453 554.205 67.5923 554.205 69.677C554.205 71.1323 553.91 72.568 553.32 73.984C552.769 75.3607 552.002 76.639 551.019 77.819C550.075 78.9597 548.954 79.884 547.656 80.592C546.397 81.2607 545.04 81.595 543.585 81.595H532.611V99H527.95ZM532.611 77.052H543.467C544.568 77.052 545.571 76.698 546.476 75.99C547.42 75.2427 548.167 74.2987 548.718 73.158C549.308 72.0173 549.603 70.857 549.603 69.677C549.603 68.3397 549.328 67.1203 548.777 66.019C548.266 64.8783 547.558 63.9737 546.653 63.305C545.748 62.6363 544.745 62.302 543.644 62.302H532.611V77.052ZM570.274 99.708C567.442 99.708 564.944 99.0983 562.781 97.879C560.657 96.6597 558.985 94.9487 557.766 92.746C556.586 90.504 555.996 87.8883 555.996 84.899C555.996 81.4377 556.625 78.5467 557.884 76.226C559.142 73.9053 560.834 72.155 562.958 70.975C565.121 69.795 567.56 69.205 570.274 69.205C573.066 69.205 575.525 69.795 577.649 70.975C579.812 72.155 581.503 73.9053 582.723 76.226C583.942 78.5467 584.552 81.4377 584.552 84.899C584.552 87.8883 583.942 90.504 582.723 92.746C581.503 94.9487 579.812 96.6597 577.649 97.879C575.525 99.0983 573.066 99.708 570.274 99.708ZM570.274 95.224C572.358 95.224 574.128 94.7717 575.584 93.867C577.039 92.923 578.14 91.6643 578.888 90.091C579.635 88.5177 580.009 86.787 580.009 84.899C580.009 81.6737 579.163 79.0187 577.472 76.934C575.82 74.81 573.42 73.748 570.274 73.748C567.088 73.748 564.669 74.81 563.017 76.934C561.365 79.058 560.539 81.713 560.539 84.899C560.539 86.8263 560.893 88.5767 561.601 90.15C562.348 91.684 563.449 92.923 564.905 93.867C566.36 94.7717 568.15 95.224 570.274 95.224ZM589.888 99V69.854H594.549V72.568C595.847 71.1127 597.44 70.2277 599.328 69.913C601.256 69.5983 603.675 69.854 606.585 70.68L604.402 74.81C602.632 74.1807 600.98 74.0823 599.446 74.515C597.952 74.9083 596.752 75.6163 595.847 76.639C594.943 77.6617 594.51 78.763 594.549 79.943V99H589.888ZM615.289 86.256V73.866H610.156V69.5H615.289V57.7H619.95V69.5H625.142V73.866H619.95V86.256C619.95 88.7733 620.029 90.622 620.186 91.802C620.383 92.9427 620.756 93.6703 621.307 93.985C621.858 94.2997 622.664 94.4767 623.726 94.516H625.201V99.177H623.903C622.094 99.177 620.619 99.0197 619.478 98.705C618.337 98.351 617.452 97.7217 616.823 96.817C616.233 95.9123 615.82 94.6143 615.584 92.923C615.387 91.2317 615.289 89.0093 615.289 86.256ZM648.019 61.948C645.698 61.83 643.987 62.0463 642.886 62.597C641.824 63.1083 641.116 63.954 640.762 65.134C640.447 66.2747 640.29 67.7497 640.29 69.559H645.777V73.63H640.29V99.059H635.688V73.63H630.437V69.559H635.688C635.688 66.9237 636.022 64.6817 636.691 62.833C637.399 60.945 638.638 59.529 640.408 58.585C642.217 57.641 644.754 57.2673 648.019 57.464V61.948ZM664.075 99.708C661.243 99.708 658.745 99.0983 656.582 97.879C654.458 96.6597 652.786 94.9487 651.567 92.746C650.387 90.504 649.797 87.8883 649.797 84.899C649.797 81.4377 650.426 78.5467 651.685 76.226C652.943 73.9053 654.635 72.155 656.759 70.975C658.922 69.795 661.361 69.205 664.075 69.205C666.867 69.205 669.326 69.795 671.45 70.975C673.613 72.155 675.304 73.9053 676.524 76.226C677.743 78.5467 678.353 81.4377 678.353 84.899C678.353 87.8883 677.743 90.504 676.524 92.746C675.304 94.9487 673.613 96.6597 671.45 97.879C669.326 99.0983 666.867 99.708 664.075 99.708ZM664.075 95.224C666.159 95.224 667.929 94.7717 669.385 93.867C670.84 92.923 671.941 91.6643 672.689 90.091C673.436 88.5177 673.81 86.787 673.81 84.899C673.81 81.6737 672.964 79.0187 671.273 76.934C669.621 74.81 667.221 73.748 664.075 73.748C660.889 73.748 658.47 74.81 656.818 76.934C655.166 79.058 654.34 81.713 654.34 84.899C654.34 86.8263 654.694 88.5767 655.402 90.15C656.149 91.684 657.25 92.923 658.706 93.867C660.161 94.7717 661.951 95.224 664.075 95.224ZM688.35 99H683.689V57.7H688.35V99ZM697.36 65.606C696.495 65.606 695.748 65.311 695.118 64.721C694.528 64.0917 694.233 63.3443 694.233 62.479C694.233 61.6137 694.528 60.886 695.118 60.296C695.748 59.6667 696.495 59.352 697.36 59.352C698.226 59.352 698.953 59.6667 699.543 60.296C700.173 60.886 700.487 61.6137 700.487 62.479C700.487 63.3443 700.173 64.0917 699.543 64.721C698.953 65.311 698.226 65.606 697.36 65.606ZM699.602 99H695.177V69.5H699.602V99ZM718.926 99.708C716.094 99.708 713.596 99.0983 711.433 97.879C709.309 96.6597 707.637 94.9487 706.418 92.746C705.238 90.504 704.648 87.8883 704.648 84.899C704.648 81.4377 705.277 78.5467 706.536 76.226C707.795 73.9053 709.486 72.155 711.61 70.975C713.773 69.795 716.212 69.205 718.926 69.205C721.719 69.205 724.177 69.795 726.301 70.975C728.464 72.155 730.156 73.9053 731.375 76.226C732.594 78.5467 733.204 81.4377 733.204 84.899C733.204 87.8883 732.594 90.504 731.375 92.746C730.156 94.9487 728.464 96.6597 726.301 97.879C724.177 99.0983 721.719 99.708 718.926 99.708ZM718.926 95.224C721.011 95.224 722.781 94.7717 724.236 93.867C725.691 92.923 726.793 91.6643 727.54 90.091C728.287 88.5177 728.661 86.787 728.661 84.899C728.661 81.6737 727.815 79.0187 726.124 76.934C724.472 74.81 722.073 73.748 718.926 73.748C715.74 73.748 713.321 74.81 711.669 76.934C710.017 79.058 709.191 81.713 709.191 84.899C709.191 86.8263 709.545 88.5767 710.253 90.15C711 91.684 712.102 92.923 713.557 93.867C715.012 94.7717 716.802 95.224 718.926 95.224ZM760.954 99V57.7H770.689L782.253 87.023L793.817 57.7H803.552V99H798.832V63.01H796.826L784.849 92.569H779.716L767.68 63.01H765.615V99H760.954ZM809.468 99V57.7H819.203L830.767 87.023L842.331 57.7H852.066V99H847.346V63.01H845.34L833.363 92.569H828.23L816.194 63.01H814.129V99H809.468ZM862.642 99H857.981V57.7H862.642V99Z" fill="white"/>
<path d="M527.95 99L528.009 57.7H543.762C545.768 57.7 547.558 58.2703 549.131 59.411C550.704 60.5123 551.943 61.9873 552.848 63.836C553.753 65.6453 554.205 67.5923 554.205 69.677C554.205 71.1323 553.91 72.568 553.32 73.984C552.769 75.3607 552.002 76.639 551.019 77.819C550.075 78.9597 548.954 79.884 547.656 80.592C546.397 81.2607 545.04 81.595 543.585 81.595H532.611V99H527.95ZM532.611 77.052H543.467C544.568 77.052 545.571 76.698 546.476 75.99C547.42 75.2427 548.167 74.2987 548.718 73.158C549.308 72.0173 549.603 70.857 549.603 69.677C549.603 68.3397 549.328 67.1203 548.777 66.019C548.266 64.8783 547.558 63.9737 546.653 63.305C545.748 62.6363 544.745 62.302 543.644 62.302H532.611V77.052ZM570.274 99.708C567.442 99.708 564.944 99.0983 562.781 97.879C560.657 96.6597 558.985 94.9487 557.766 92.746C556.586 90.504 555.996 87.8883 555.996 84.899C555.996 81.4377 556.625 78.5467 557.884 76.226C559.142 73.9053 560.834 72.155 562.958 70.975C565.121 69.795 567.56 69.205 570.274 69.205C573.066 69.205 575.525 69.795 577.649 70.975C579.812 72.155 581.503 73.9053 582.723 76.226C583.942 78.5467 584.552 81.4377 584.552 84.899C584.552 87.8883 583.942 90.504 582.723 92.746C581.503 94.9487 579.812 96.6597 577.649 97.879C575.525 99.0983 573.066 99.708 570.274 99.708ZM570.274 95.224C572.358 95.224 574.128 94.7717 575.584 93.867C577.039 92.923 578.14 91.6643 578.888 90.091C579.635 88.5177 580.009 86.787 580.009 84.899C580.009 81.6737 579.163 79.0187 577.472 76.934C575.82 74.81 573.42 73.748 570.274 73.748C567.088 73.748 564.669 74.81 563.017 76.934C561.365 79.058 560.539 81.713 560.539 84.899C560.539 86.8263 560.893 88.5767 561.601 90.15C562.348 91.684 563.449 92.923 564.905 93.867C566.36 94.7717 568.15 95.224 570.274 95.224ZM589.888 99V69.854H594.549V72.568C595.847 71.1127 597.44 70.2277 599.328 69.913C601.256 69.5983 603.675 69.854 606.585 70.68L604.402 74.81C602.632 74.1807 600.98 74.0823 599.446 74.515C597.952 74.9083 596.752 75.6163 595.847 76.639C594.943 77.6617 594.51 78.763 594.549 79.943V99H589.888ZM615.289 86.256V73.866H610.156V69.5H615.289V57.7H619.95V69.5H625.142V73.866H619.95V86.256C619.95 88.7733 620.029 90.622 620.186 91.802C620.383 92.9427 620.756 93.6703 621.307 93.985C621.858 94.2997 622.664 94.4767 623.726 94.516H625.201V99.177H623.903C622.094 99.177 620.619 99.0197 619.478 98.705C618.337 98.351 617.452 97.7217 616.823 96.817C616.233 95.9123 615.82 94.6143 615.584 92.923C615.387 91.2317 615.289 89.0093 615.289 86.256ZM648.019 61.948C645.698 61.83 643.987 62.0463 642.886 62.597C641.824 63.1083 641.116 63.954 640.762 65.134C640.447 66.2747 640.29 67.7497 640.29 69.559H645.777V73.63H640.29V99.059H635.688V73.63H630.437V69.559H635.688C635.688 66.9237 636.022 64.6817 636.691 62.833C637.399 60.945 638.638 59.529 640.408 58.585C642.217 57.641 644.754 57.2673 648.019 57.464V61.948ZM664.075 99.708C661.243 99.708 658.745 99.0983 656.582 97.879C654.458 96.6597 652.786 94.9487 651.567 92.746C650.387 90.504 649.797 87.8883 649.797 84.899C649.797 81.4377 650.426 78.5467 651.685 76.226C652.943 73.9053 654.635 72.155 656.759 70.975C658.922 69.795 661.361 69.205 664.075 69.205C666.867 69.205 669.326 69.795 671.45 70.975C673.613 72.155 675.304 73.9053 676.524 76.226C677.743 78.5467 678.353 81.4377 678.353 84.899C678.353 87.8883 677.743 90.504 676.524 92.746C675.304 94.9487 673.613 96.6597 671.45 97.879C669.326 99.0983 666.867 99.708 664.075 99.708ZM664.075 95.224C666.159 95.224 667.929 94.7717 669.385 93.867C670.84 92.923 671.941 91.6643 672.689 90.091C673.436 88.5177 673.81 86.787 673.81 84.899C673.81 81.6737 672.964 79.0187 671.273 76.934C669.621 74.81 667.221 73.748 664.075 73.748C660.889 73.748 658.47 74.81 656.818 76.934C655.166 79.058 654.34 81.713 654.34 84.899C654.34 86.8263 654.694 88.5767 655.402 90.15C656.149 91.684 657.25 92.923 658.706 93.867C660.161 94.7717 661.951 95.224 664.075 95.224ZM688.35 99H683.689V57.7H688.35V99ZM697.36 65.606C696.495 65.606 695.748 65.311 695.118 64.721C694.528 64.0917 694.233 63.3443 694.233 62.479C694.233 61.6137 694.528 60.886 695.118 60.296C695.748 59.6667 696.495 59.352 697.36 59.352C698.226 59.352 698.953 59.6667 699.543 60.296C700.173 60.886 700.487 61.6137 700.487 62.479C700.487 63.3443 700.173 64.0917 699.543 64.721C698.953 65.311 698.226 65.606 697.36 65.606ZM699.602 99H695.177V69.5H699.602V99ZM718.926 99.708C716.094 99.708 713.596 99.0983 711.433 97.879C709.309 96.6597 707.637 94.9487 706.418 92.746C705.238 90.504 704.648 87.8883 704.648 84.899C704.648 81.4377 705.277 78.5467 706.536 76.226C707.795 73.9053 709.486 72.155 711.61 70.975C713.773 69.795 716.212 69.205 718.926 69.205C721.719 69.205 724.177 69.795 726.301 70.975C728.464 72.155 730.156 73.9053 731.375 76.226C732.594 78.5467 733.204 81.4377 733.204 84.899C733.204 87.8883 732.594 90.504 731.375 92.746C730.156 94.9487 728.464 96.6597 726.301 97.879C724.177 99.0983 721.719 99.708 718.926 99.708ZM718.926 95.224C721.011 95.224 722.781 94.7717 724.236 93.867C725.691 92.923 726.793 91.6643 727.54 90.091C728.287 88.5177 728.661 86.787 728.661 84.899C728.661 81.6737 727.815 79.0187 726.124 76.934C724.472 74.81 722.073 73.748 718.926 73.748C715.74 73.748 713.321 74.81 711.669 76.934C710.017 79.058 709.191 81.713 709.191 84.899C709.191 86.8263 709.545 88.5767 710.253 90.15C711 91.684 712.102 92.923 713.557 93.867C715.012 94.7717 716.802 95.224 718.926 95.224ZM760.954 99V57.7H770.689L782.253 87.023L793.817 57.7H803.552V99H798.832V63.01H796.826L784.849 92.569H779.716L767.68 63.01H765.615V99H760.954ZM809.468 99V57.7H819.203L830.767 87.023L842.331 57.7H852.066V99H847.346V63.01H845.34L833.363 92.569H828.23L816.194 63.01H814.129V99H809.468ZM862.642 99H857.981V57.7H862.642V99Z" fill="url(#paint1_linear_246_148)"/>
<g filter="url(#filter0_d_246_148)">
<path d="M434.67 0L451.558 16.7778L374.888 92.9401L358 76.1623L434.67 0Z" fill="white"/>
<path d="M434.67 0L451.558 16.7778L374.888 92.9401L358 76.1623L434.67 0Z" fill="url(#paint2_radial_246_148)"/>
<path fill-rule="evenodd" clip-rule="evenodd" d="M485.334 50.3333L434.67 0L384.005 50.3333L434.67 100.667L485.334 50.3333ZM451.558 50.3333L434.67 33.5556L417.782 50.3333L434.67 67.1111L451.558 50.3333Z" fill="white"/>
<path fill-rule="evenodd" clip-rule="evenodd" d="M485.334 50.3333L434.67 0L384.005 50.3333L434.67 100.667L485.334 50.3333ZM451.558 50.3333L434.67 33.5556L417.782 50.3333L434.67 67.1111L451.558 50.3333Z" fill="url(#paint3_radial_246_148)"/>
<path d="M400.893 83.8889L451.558 134.222L434.67 151L384.005 100.667L400.893 83.8889Z" fill="white"/>
<path d="M400.893 83.8889L451.558 134.222L434.67 151L384.005 100.667L400.893 83.8889Z" fill="url(#paint4_radial_246_148)"/>
<path d="M495.112 57.3977L512 74.1754L434.67 151L417.782 134.222L495.112 57.3977Z" fill="white"/>
<path d="M495.112 57.3977L512 74.1754L434.67 151L417.782 134.222L495.112 57.3977Z" fill="url(#paint5_radial_246_148)"/>
</g>
<defs>
<filter id="filter0_d_246_148" x="354" y="0" width="162" height="159" filterUnits="userSpaceOnUse" color-interpolation-filters="sRGB">
<feFlood flood-opacity="0" result="BackgroundImageFix"/>
<feColorMatrix in="SourceAlpha" type="matrix" values="0 0 0 0 0 0 0 0 0 0 0 0 0 0 0 0 0 0 127 0" result="hardAlpha"/>
<feOffset dy="4"/>
<feGaussianBlur stdDeviation="2"/>
<feComposite in2="hardAlpha" operator="out"/>
<feColorMatrix type="matrix" values="0 0 0 0 0 0 0 0 0 0 0 0 0 0 0 0 0 0 0.25 0"/>
<feBlend mode="normal" in2="BackgroundImageFix" result="effect1_dropShadow_246_148"/>
<feBlend mode="normal" in="SourceGraphic" in2="effect1_dropShadow_246_148" result="shape"/>
</filter>
<linearGradient id="paint0_linear_246_148" x1="133" y1="0.999991" x2="133" y2="172" gradientUnits="userSpaceOnUse">
<stop offset="0.00190222" stop-color="#AFAFAF"/>
<stop offset="0.4456" stop-color="white" stop-opacity="0.792344"/>
<stop offset="0.822742" stop-color="#006775"/>
</linearGradient>
<linearGradient id="paint1_linear_246_148" x1="658" y1="9.12328" x2="658" y2="166.068" gradientUnits="userSpaceOnUse">
<stop offset="0.00190222" stop-color="#AFAFAF"/>
<stop offset="0.4456" stop-color="white" stop-opacity="0.792344"/>
<stop offset="0.822742" stop-color="#006775"/>
</linearGradient>
<radialGradient id="paint2_radial_246_148" cx="0" cy="0" r="1" gradientUnits="userSpaceOnUse" gradientTransform="translate(435 75.5) rotate(90) scale(75.5 77)">
<stop stop-color="white" stop-opacity="0.190982"/>
<stop offset="1" stop-color="#E7E7E7"/>
</radialGradient>
<radialGradient id="paint3_radial_246_148" cx="0" cy="0" r="1" gradientUnits="userSpaceOnUse" gradientTransform="translate(435 75.5) rotate(90) scale(75.5 77)">
<stop stop-color="white" stop-opacity="0.190982"/>
<stop offset="1" stop-color="#E7E7E7"/>
</radialGradient>
<radialGradient id="paint4_radial_246_148" cx="0" cy="0" r="1" gradientUnits="userSpaceOnUse" gradientTransform="translate(435 75.5) rotate(90) scale(75.5 77)">
<stop stop-color="white" stop-opacity="0.190982"/>
<stop offset="1" stop-color="#E7E7E7"/>
</radialGradient>
<radialGradient id="paint5_radial_246_148" cx="0" cy="0" r="1" gradientUnits="userSpaceOnUse" gradientTransform="translate(435 75.5) rotate(90) scale(75.5 77)">
<stop stop-color="white" stop-opacity="0.190982"/>
<stop offset="1" stop-color="#E7E7E7"/>
</radialGradient>
</defs>
</svg>
